<svg xmlns="http://www.w3.org/2000/svg" viewBox="0 0 1200 600" role="img" aria-label="Stylized trading candlestick chart">
  <defs>
    <linearGradient id="bg" x1="0" y1="0" x2="1" y2="1">
      <stop offset="0%" stop-color="#ffffff" />
      <stop offset="100%" stop-color="#f3f4f6" />
    </linearGradient>
  </defs>
  <rect width="1200" height="600" fill="url(#bg)"/>
  <g stroke="#e5e7eb" stroke-width="1">
    <line x1="80" y1="80" x2="80" y2="520"/>
    <line x1="80" y1="520" x2="1120" y2="520"/>
  </g>
  <g>
    <rect x="140" y="260" width="16" height="140" fill="#ef4444" />
    <line x1="148" y1="220" x2="148" y2="460" stroke="#ef4444" stroke-width="6" />
    <rect x="240" y="220" width="16" height="180" fill="#22c55e" />
    <line x1="248" y1="180" x2="248" y2="460" stroke="#22c55e" stroke-width="6" />
    <rect x="340" y="280" width="16" height="120" fill="#ef4444" />
    <line x1="348" y1="240" x2="348" y2="460" stroke="#ef4444" stroke-width="6" />
    <rect x="440" y="200" width="16" height="200" fill="#22c55e" />
    <line x1="448" y1="160" x2="448" y2="460" stroke="#22c55e" stroke-width="6" />
    <rect x="540" y="300" width="16" height="100" fill="#ef4444" />
    <line x1="548" y1="260" x2="548" y2="460" stroke="#ef4444" stroke-width="6" />
    <rect x="640" y="180" width="16" height="220" fill="#22c55e" />
    <line x1="648" y1="140" x2="648" y2="460" stroke="#22c55e" stroke-width="6" />
    <rect x="740" y="260" width="16" height="140" fill="#22c55e" />
    <line x1="748" y1="220" x2="748" y2="460" stroke="#22c55e" stroke-width="6" />
    <rect x="840" y="260" width="16" height="140" fill="#ef4444" />
    <line x1="848" y1="220" x2="848" y2="460" stroke="#ef4444" stroke-width="6" />
    <rect x="940" y="200" width="16" height="200" fill="#22c55e" />
    <line x1="948" y1="160" x2="948" y2="460" stroke="#22c55e" stroke-width="6" />
  </g>
</svg>
